<svg width="44" height="45" viewBox="0 0 44 45" fill="none" xmlns="http://www.w3.org/2000/svg">
<rect x="0.5" y="1" width="43" height="43" rx="21.5" stroke="#DBDEE5"/>
<path d="M15 28.4999H19.24C19.3716 28.5007 19.5021 28.4755 19.6239 28.4257C19.7457 28.3759 19.8566 28.3026 19.95 28.2099L26.87 21.2799L29.71 18.4999C29.8037 18.407 29.8781 18.2964 29.9289 18.1745C29.9797 18.0527 30.0058 17.922 30.0058 17.7899C30.0058 17.6579 29.9797 17.5272 29.9289 17.4054C29.8781 17.2835 29.8037 17.1729 29.71 17.0799L25.47 12.7899C25.377 12.6962 25.2664 12.6218 25.1446 12.571C25.0227 12.5203 24.892 12.4941 24.76 12.4941C24.628 12.4941 24.4973 12.5203 24.3754 12.571C24.2536 12.6218 24.143 12.6962 24.05 12.7899L21.23 15.6199L14.29 22.5499C14.1973 22.6434 14.124 22.7542 14.0742 22.876C14.0245 22.9979 13.9992 23.1283 14 23.2599V27.4999C14 27.7652 14.1054 28.0195 14.2929 28.207C14.4804 28.3946 14.7348 28.4999 15 28.4999ZM24.76 14.9099L27.59 17.7399L26.17 19.1599L23.34 16.3299L24.76 14.9099ZM16 23.6699L21.93 17.7399L24.76 20.5699L18.83 26.4999H16V23.6699ZM31 30.4999H13C12.7348 30.4999 12.4804 30.6053 12.2929 30.7928C12.1054 30.9804 12 31.2347 12 31.4999C12 31.7652 12.1054 32.0195 12.2929 32.207C12.4804 32.3946 12.7348 32.4999 13 32.4999H31C31.2652 32.4999 31.5196 32.3946 31.7071 32.207C31.8946 32.0195 32 31.7652 32 31.4999C32 31.2347 31.8946 30.9804 31.7071 30.7928C31.5196 30.6053 31.2652 30.4999 31 30.4999Z" fill="#1F1E1E"/>
</svg>
