<svg width="32" height="32" viewBox="0 0 32 32" fill="none" xmlns="http://www.w3.org/2000/svg">
<path d="M11.0005 21L21.0005 11M15.6365 3L19.1725 5.12L23.2785 5.482L24.8925 9.276L28.0005 11.98L27.0765 16L28.0005 20.018L24.8925 22.724L23.2785 26.518L19.1725 26.88L15.6365 29L12.1025 26.88L7.99446 26.518L6.38246 22.724L3.27246 20.018L4.19646 16L3.27246 11.982L6.38246 9.276L7.99446 5.482L12.1025 5.12L15.6365 3ZM14.0005 13C14.0005 13.5304 13.7897 14.0391 13.4147 14.4142C13.0396 14.7893 12.5309 15 12.0005 15C11.47 15 10.9613 14.7893 10.5862 14.4142C10.2112 14.0391 10.0005 13.5304 10.0005 13C10.0005 12.4696 10.2112 11.9609 10.5862 11.5858C10.9613 11.2107 11.47 11 12.0005 11C12.5309 11 13.0396 11.2107 13.4147 11.5858C13.7897 11.9609 14.0005 12.4696 14.0005 13ZM22.0005 20C22.0005 20.5304 21.7897 21.0391 21.4147 21.4142C21.0396 21.7893 20.5309 22 20.0005 22C19.47 22 18.9613 21.7893 18.5862 21.4142C18.2112 21.0391 18.0005 20.5304 18.0005 20C18.0005 19.4696 18.2112 18.9609 18.5862 18.5858C18.9613 18.2107 19.47 18 20.0005 18C20.5309 18 21.0396 18.2107 21.4147 18.5858C21.7897 18.9609 22.0005 19.4696 22.0005 20Z" stroke="#1F1E1E" stroke-width="2"/>
</svg>
