<svg width="334" height="138" viewBox="0 0 334 138" fill="none" xmlns="http://www.w3.org/2000/svg">
<path d="M0 106.978H334" stroke="#979797"/>
<path d="M12.001 113.007V107.007" stroke="#979797"/>
<mask id="path-3-inside-1_64_1874" fill="white">
<path d="M1.04941 124.127H4.32541C5.46141 124.127 6.40941 124.535 7.16941 125.351C7.92941 126.159 8.30941 127.151 8.30941 128.327C8.30941 129.495 7.92941 130.491 7.16941 131.315C6.40941 132.123 5.46141 132.527 4.32541 132.527H1.04941V124.127ZM2.16541 131.471H4.32541C5.18141 131.471 5.88141 131.171 6.42541 130.571C6.96941 129.963 7.24141 129.215 7.24141 128.327C7.24141 127.439 6.96941 126.691 6.42541 126.083C5.88141 125.483 5.18141 125.183 4.32541 125.183H2.16541V131.471ZM15.3147 130.007H10.2867C10.3907 130.535 10.6347 130.951 11.0187 131.255C11.4027 131.551 11.8827 131.699 12.4587 131.699C13.2507 131.699 13.8267 131.407 14.1867 130.823L15.0747 131.327C14.4827 132.231 13.6027 132.683 12.4347 132.683C11.4907 132.683 10.7147 132.387 10.1067 131.795C9.5147 131.187 9.2187 130.431 9.2187 129.527C9.2187 128.615 9.5107 127.863 10.0947 127.271C10.6787 126.671 11.4347 126.371 12.3627 126.371C13.2427 126.371 13.9587 126.683 14.5107 127.307C15.0707 127.915 15.3507 128.659 15.3507 129.539C15.3507 129.691 15.3387 129.847 15.3147 130.007ZM12.3627 127.355C11.8107 127.355 11.3467 127.511 10.9707 127.823C10.6027 128.135 10.3747 128.559 10.2867 129.095H14.2947C14.2067 128.543 13.9867 128.115 13.6347 127.811C13.2827 127.507 12.8587 127.355 12.3627 127.355ZM19.3591 132.683C18.4551 132.683 17.7031 132.383 17.1031 131.783C16.5031 131.175 16.2031 130.423 16.2031 129.527C16.2031 128.631 16.5031 127.883 17.1031 127.283C17.7031 126.675 18.4551 126.371 19.3591 126.371C19.9511 126.371 20.4831 126.515 20.9551 126.803C21.4271 127.083 21.7791 127.463 22.0111 127.943L21.1351 128.447C20.9831 128.127 20.7471 127.871 20.4271 127.679C20.1151 127.487 19.7591 127.391 19.3591 127.391C18.7591 127.391 18.2551 127.595 17.8471 128.003C17.4471 128.419 17.2471 128.927 17.2471 129.527C17.2471 130.119 17.4471 130.623 17.8471 131.039C18.2551 131.447 18.7591 131.651 19.3591 131.651C19.7591 131.651 20.1191 131.559 20.4391 131.375C20.7591 131.183 21.0031 130.927 21.1711 130.607L22.0591 131.123C21.7951 131.603 21.4231 131.983 20.9431 132.263C20.4631 132.543 19.9351 132.683 19.3591 132.683ZM23.3866 132.659C23.1706 132.659 22.9866 132.583 22.8346 132.431C22.6826 132.279 22.6066 132.095 22.6066 131.879C22.6066 131.663 22.6826 131.479 22.8346 131.327C22.9866 131.175 23.1706 131.099 23.3866 131.099C23.6106 131.099 23.7946 131.175 23.9386 131.327C24.0906 131.479 24.1666 131.663 24.1666 131.879C24.1666 132.095 24.0906 132.279 23.9386 132.431C23.7946 132.583 23.6106 132.659 23.3866 132.659Z"/>
</mask>
<path d="M1.04941 124.127H4.32541C5.46141 124.127 6.40941 124.535 7.16941 125.351C7.92941 126.159 8.30941 127.151 8.30941 128.327C8.30941 129.495 7.92941 130.491 7.16941 131.315C6.40941 132.123 5.46141 132.527 4.32541 132.527H1.04941V124.127ZM2.16541 131.471H4.32541C5.18141 131.471 5.88141 131.171 6.42541 130.571C6.96941 129.963 7.24141 129.215 7.24141 128.327C7.24141 127.439 6.96941 126.691 6.42541 126.083C5.88141 125.483 5.18141 125.183 4.32541 125.183H2.16541V131.471ZM15.3147 130.007H10.2867C10.3907 130.535 10.6347 130.951 11.0187 131.255C11.4027 131.551 11.8827 131.699 12.4587 131.699C13.2507 131.699 13.8267 131.407 14.1867 130.823L15.0747 131.327C14.4827 132.231 13.6027 132.683 12.4347 132.683C11.4907 132.683 10.7147 132.387 10.1067 131.795C9.5147 131.187 9.2187 130.431 9.2187 129.527C9.2187 128.615 9.5107 127.863 10.0947 127.271C10.6787 126.671 11.4347 126.371 12.3627 126.371C13.2427 126.371 13.9587 126.683 14.5107 127.307C15.0707 127.915 15.3507 128.659 15.3507 129.539C15.3507 129.691 15.3387 129.847 15.3147 130.007ZM12.3627 127.355C11.8107 127.355 11.3467 127.511 10.9707 127.823C10.6027 128.135 10.3747 128.559 10.2867 129.095H14.2947C14.2067 128.543 13.9867 128.115 13.6347 127.811C13.2827 127.507 12.8587 127.355 12.3627 127.355ZM19.3591 132.683C18.4551 132.683 17.7031 132.383 17.1031 131.783C16.5031 131.175 16.2031 130.423 16.2031 129.527C16.2031 128.631 16.5031 127.883 17.1031 127.283C17.7031 126.675 18.4551 126.371 19.3591 126.371C19.9511 126.371 20.4831 126.515 20.9551 126.803C21.4271 127.083 21.7791 127.463 22.0111 127.943L21.1351 128.447C20.9831 128.127 20.7471 127.871 20.4271 127.679C20.1151 127.487 19.7591 127.391 19.3591 127.391C18.7591 127.391 18.2551 127.595 17.8471 128.003C17.4471 128.419 17.2471 128.927 17.2471 129.527C17.2471 130.119 17.4471 130.623 17.8471 131.039C18.2551 131.447 18.7591 131.651 19.3591 131.651C19.7591 131.651 20.1191 131.559 20.4391 131.375C20.7591 131.183 21.0031 130.927 21.1711 130.607L22.0591 131.123C21.7951 131.603 21.4231 131.983 20.9431 132.263C20.4631 132.543 19.9351 132.683 19.3591 132.683ZM23.3866 132.659C23.1706 132.659 22.9866 132.583 22.8346 132.431C22.6826 132.279 22.6066 132.095 22.6066 131.879C22.6066 131.663 22.6826 131.479 22.8346 131.327C22.9866 131.175 23.1706 131.099 23.3866 131.099C23.6106 131.099 23.7946 131.175 23.9386 131.327C24.0906 131.479 24.1666 131.663 24.1666 131.879C24.1666 132.095 24.0906 132.279 23.9386 132.431C23.7946 132.583 23.6106 132.659 23.3866 132.659Z" fill="#979797"/>
<path d="M1.04941 124.127V123.127H0.0494141V124.127H1.04941ZM7.16941 125.351L6.43764 126.032L6.441 126.036L7.16941 125.351ZM7.16941 131.315L7.89786 132L7.90449 131.993L7.16941 131.315ZM1.04941 132.527H0.0494141V133.527H1.04941V132.527ZM2.16541 131.471H1.16541V132.471H2.16541V131.471ZM6.42541 130.571L7.16626 131.242L7.17066 131.237L6.42541 130.571ZM6.42541 126.083L7.17067 125.416L7.16625 125.411L6.42541 126.083ZM2.16541 125.183V124.183H1.16541V125.183H2.16541ZM1.04941 124.127V125.127H4.32541V124.127V123.127H1.04941V124.127ZM4.32541 124.127V125.127C5.18977 125.127 5.87079 125.424 6.43764 126.032L7.16941 125.351L7.90119 124.669C6.94804 123.646 5.73306 123.127 4.32541 123.127V124.127ZM7.16941 125.351L6.441 126.036C7.01534 126.646 7.30941 127.388 7.30941 128.327H8.30941H9.30941C9.30941 126.913 8.84349 125.671 7.89783 124.665L7.16941 125.351ZM8.30941 128.327H7.30941C7.30941 129.255 7.01628 130.006 6.43434 130.637L7.16941 131.315L7.90449 131.993C8.84255 130.976 9.30941 129.734 9.30941 128.327H8.30941ZM7.16941 131.315L6.441 130.629C5.87508 131.231 5.1931 131.527 4.32541 131.527V132.527V133.527C5.72973 133.527 6.94375 133.014 7.89783 132L7.16941 131.315ZM4.32541 132.527V131.527H1.04941V132.527V133.527H4.32541V132.527ZM1.04941 132.527H2.04941V124.127H1.04941H0.0494141V132.527H1.04941ZM2.16541 131.471V132.471H4.32541V131.471V130.471H2.16541V131.471ZM4.32541 131.471V132.471C5.44549 132.471 6.42085 132.064 7.16625 131.242L6.42541 130.571L5.68458 129.899C5.34198 130.277 4.91734 130.471 4.32541 130.471V131.471ZM6.42541 130.571L7.17066 131.237C7.89378 130.429 8.24141 129.437 8.24141 128.327H7.24141H6.24141C6.24141 128.992 6.04505 129.496 5.68017 129.904L6.42541 130.571ZM7.24141 128.327H8.24141C8.24141 127.216 7.89378 126.224 7.17066 125.416L6.42541 126.083L5.68017 126.749C6.04505 127.157 6.24141 127.661 6.24141 128.327H7.24141ZM6.42541 126.083L7.16625 125.411C6.42085 124.589 5.44549 124.183 4.32541 124.183V125.183V126.183C4.91734 126.183 5.34198 126.376 5.68458 126.754L6.42541 126.083ZM4.32541 125.183V124.183H2.16541V125.183V126.183H4.32541V125.183ZM2.16541 125.183H1.16541V131.471H2.16541H3.16541V125.183H2.16541ZM15.3147 130.007V131.007H16.1759L16.3036 130.155L15.3147 130.007ZM10.2867 130.007V129.007H9.07051L9.30555 130.2L10.2867 130.007ZM11.0187 131.255L10.3979 132.039L10.4082 132.047L11.0187 131.255ZM14.1867 130.823L14.6803 129.953L13.8415 129.477L13.3354 130.298L14.1867 130.823ZM15.0747 131.327L15.9113 131.874L16.4951 130.983L15.5683 130.457L15.0747 131.327ZM10.1067 131.795L9.39022 132.492L9.39953 132.502L9.40908 132.511L10.1067 131.795ZM10.0947 127.271L10.8066 127.973L10.8113 127.968L10.0947 127.271ZM14.5107 127.307L13.7617 127.969L13.7683 127.977L13.7752 127.984L14.5107 127.307ZM10.9707 127.823L10.3321 127.053L10.324 127.06L10.9707 127.823ZM10.2867 129.095L9.29991 128.933L9.10913 130.095H10.2867V129.095ZM14.2947 129.095V130.095H15.4667L15.2822 128.937L14.2947 129.095ZM13.6347 127.811L12.9811 128.567H12.9811L13.6347 127.811ZM15.3147 130.007V129.007H10.2867V130.007V131.007H15.3147V130.007ZM10.2867 130.007L9.30555 130.2C9.45067 130.937 9.80847 131.572 10.398 132.039L11.0187 131.255L11.6394 130.471C11.4609 130.329 11.3307 130.133 11.2678 129.813L10.2867 130.007ZM11.0187 131.255L10.4082 132.047C10.9984 132.502 11.7048 132.699 12.4587 132.699V131.699V130.699C12.0606 130.699 11.807 130.6 11.6292 130.463L11.0187 131.255ZM12.4587 131.699V132.699C13.5344 132.699 14.465 132.277 15.038 131.347L14.1867 130.823L13.3354 130.298C13.1884 130.536 12.967 130.699 12.4587 130.699V131.699ZM14.1867 130.823L13.6931 131.692L14.5811 132.196L15.0747 131.327L15.5683 130.457L14.6803 129.953L14.1867 130.823ZM15.0747 131.327L14.2381 130.779C13.848 131.375 13.2979 131.683 12.4347 131.683V132.683V133.683C13.9075 133.683 15.1174 133.087 15.9113 131.874L15.0747 131.327ZM12.4347 132.683V131.683C11.7193 131.683 11.2039 131.467 10.8043 131.078L10.1067 131.795L9.40908 132.511C10.2255 133.306 11.262 133.683 12.4347 133.683V132.683ZM10.1067 131.795L10.8232 131.097C10.4257 130.689 10.2187 130.189 10.2187 129.527H9.2187H8.2187C8.2187 130.672 8.60373 131.684 9.39022 132.492L10.1067 131.795ZM9.2187 129.527H10.2187C10.2187 128.85 10.4259 128.359 10.8066 127.973L10.0947 127.271L9.3828 126.568C8.59549 127.366 8.2187 128.38 8.2187 129.527H9.2187ZM10.0947 127.271L10.8113 127.968C11.1857 127.583 11.6724 127.371 12.3627 127.371V126.371V125.371C11.197 125.371 10.1717 125.758 9.3781 126.573L10.0947 127.271ZM12.3627 126.371V127.371C12.9745 127.371 13.4113 127.573 13.7617 127.969L14.5107 127.307L15.2597 126.644C14.5061 125.792 13.5109 125.371 12.3627 125.371V126.371ZM14.5107 127.307L13.7752 127.984C14.1534 128.395 14.3507 128.892 14.3507 129.539H15.3507H16.3507C16.3507 128.425 15.988 127.434 15.2462 126.629L14.5107 127.307ZM15.3507 129.539H14.3507C14.3507 129.638 14.3429 129.744 14.3258 129.858L15.3147 130.007L16.3036 130.155C16.3345 129.949 16.3507 129.743 16.3507 129.539H15.3507ZM12.3627 127.355V126.355C11.6096 126.355 10.9108 126.573 10.3321 127.053L10.9707 127.823L11.6093 128.592C11.7825 128.448 12.0118 128.355 12.3627 128.355V127.355ZM10.9707 127.823L10.324 127.06C9.75204 127.545 9.42121 128.194 9.29991 128.933L10.2867 129.095L11.2735 129.257C11.3282 128.923 11.4534 128.724 11.6174 128.585L10.9707 127.823ZM10.2867 129.095V130.095H14.2947V129.095V128.095H10.2867V129.095ZM14.2947 129.095L15.2822 128.937C15.1649 128.201 14.8531 127.542 14.2883 127.054L13.6347 127.811L12.9811 128.567C13.1203 128.688 13.2485 128.884 13.3072 129.252L14.2947 129.095ZM13.6347 127.811L14.2883 127.054C13.742 126.582 13.0814 126.355 12.3627 126.355V127.355V128.355C12.636 128.355 12.8234 128.431 12.9811 128.567L13.6347 127.811ZM17.1031 131.783L16.3913 132.485L16.396 132.49L17.1031 131.783ZM17.1031 127.283L17.8102 127.99L17.8148 127.985L17.1031 127.283ZM20.9551 126.803L20.4342 127.656L20.4449 127.663L20.9551 126.803ZM22.0111 127.943L22.5098 128.809L23.3164 128.345L22.9114 127.507L22.0111 127.943ZM21.1351 128.447L20.2318 128.876L20.696 129.853L21.6338 129.313L21.1351 128.447ZM20.4271 127.679L19.9029 128.53L19.9126 128.536L20.4271 127.679ZM17.8471 128.003L17.14 127.296L17.133 127.302L17.1262 127.31L17.8471 128.003ZM17.8471 131.039L17.1262 131.732L17.133 131.739L17.14 131.746L17.8471 131.039ZM20.4391 131.375L20.9375 132.242L20.9456 132.237L20.9536 132.232L20.4391 131.375ZM21.1711 130.607L21.6735 129.742L20.7709 129.218L20.2857 130.142L21.1711 130.607ZM22.0591 131.123L22.9353 131.605L23.406 130.749L22.5615 130.258L22.0591 131.123ZM19.3591 132.683V131.683C18.7011 131.683 18.2095 131.475 17.8102 131.076L17.1031 131.783L16.396 132.49C17.1967 133.29 18.2091 133.683 19.3591 133.683V132.683ZM17.1031 131.783L17.8148 131.08C17.4093 130.669 17.2031 130.174 17.2031 129.527H16.2031H15.2031C15.2031 130.671 15.5968 131.68 16.3913 132.485L17.1031 131.783ZM16.2031 129.527H17.2031C17.2031 128.879 17.4091 128.391 17.8102 127.99L17.1031 127.283L16.396 126.576C15.5971 127.374 15.2031 128.382 15.2031 129.527H16.2031ZM17.1031 127.283L17.8148 127.985C18.2151 127.579 18.7052 127.371 19.3591 127.371V126.371V125.371C18.2049 125.371 17.191 125.77 16.3913 126.58L17.1031 127.283ZM19.3591 126.371V127.371C19.7808 127.371 20.1302 127.471 20.4342 127.656L20.9551 126.803L21.4759 125.949C20.8359 125.558 20.1213 125.371 19.3591 125.371V126.371ZM20.9551 126.803L20.4449 127.663C20.7532 127.846 20.9668 128.08 21.1107 128.378L22.0111 127.943L22.9114 127.507C22.5913 126.845 22.101 126.32 21.4653 125.943L20.9551 126.803ZM22.0111 127.943L21.5124 127.076L20.6364 127.58L21.1351 128.447L21.6338 129.313L22.5098 128.809L22.0111 127.943ZM21.1351 128.447L22.0383 128.018C21.7972 127.51 21.421 127.109 20.9416 126.821L20.4271 127.679L19.9126 128.536C20.0731 128.632 20.169 128.743 20.2318 128.876L21.1351 128.447ZM20.4271 127.679L20.9512 126.827C20.4672 126.529 19.9265 126.391 19.3591 126.391V127.391V128.391C19.5916 128.391 19.7629 128.444 19.903 128.53L20.4271 127.679ZM19.3591 127.391V126.391C18.5056 126.391 17.7437 126.692 17.14 127.296L17.8471 128.003L18.5542 128.71C18.7665 128.497 19.0125 128.391 19.3591 128.391V127.391ZM17.8471 128.003L17.1262 127.31C16.5394 127.92 16.2471 128.68 16.2471 129.527H17.2471H18.2471C18.2471 129.174 18.3547 128.917 18.5679 128.696L17.8471 128.003ZM17.2471 129.527H16.2471C16.2471 130.37 16.542 131.124 17.1262 131.732L17.8471 131.039L18.5679 130.346C18.3521 130.121 18.2471 129.868 18.2471 129.527H17.2471ZM17.8471 131.039L17.14 131.746C17.7437 132.349 18.5056 132.651 19.3591 132.651V131.651V130.651C19.0125 130.651 18.7665 130.544 18.5542 130.332L17.8471 131.039ZM19.3591 131.651V132.651C19.9189 132.651 20.4533 132.52 20.9375 132.242L20.4391 131.375L19.9406 130.508C19.7848 130.597 19.5992 130.651 19.3591 130.651V131.651ZM20.4391 131.375L20.9536 132.232C21.4255 131.949 21.8003 131.559 22.0565 131.071L21.1711 130.607L20.2857 130.142C20.2058 130.294 20.0926 130.416 19.9246 130.517L20.4391 131.375ZM21.1711 130.607L20.6687 131.471L21.5567 131.987L22.0591 131.123L22.5615 130.258L21.6735 129.742L21.1711 130.607ZM22.0591 131.123L21.1829 130.641C21.0074 130.96 20.7652 131.209 20.4392 131.399L20.9431 132.263L21.4469 133.126C22.081 132.757 22.5827 132.246 22.9353 131.605L22.0591 131.123ZM20.9431 132.263L20.4392 131.399C20.1179 131.586 19.7648 131.683 19.3591 131.683V132.683V133.683C20.1054 133.683 20.8083 133.499 21.4469 133.126L20.9431 132.263ZM22.8346 132.431L23.5417 131.724L22.8346 132.431ZM23.9386 131.327L23.2126 132.014L23.2219 132.024L23.2315 132.034L23.9386 131.327ZM23.9386 132.431L23.2315 131.724L23.2219 131.733L23.2126 131.743L23.9386 132.431ZM23.3866 132.659V131.659C23.3983 131.659 23.4293 131.661 23.4683 131.677C23.5074 131.694 23.5321 131.714 23.5417 131.724L22.8346 132.431L22.1275 133.138C22.468 133.478 22.9068 133.659 23.3866 133.659V132.659ZM22.8346 132.431L23.5417 131.724C23.5513 131.733 23.5717 131.758 23.5878 131.797C23.6039 131.836 23.6066 131.867 23.6066 131.879H22.6066H21.6066C21.6066 132.358 21.7869 132.797 22.1275 133.138L22.8346 132.431ZM22.6066 131.879H23.6066C23.6066 131.89 23.6039 131.921 23.5878 131.96C23.5717 131.999 23.5513 132.024 23.5417 132.034L22.8346 131.327L22.1275 130.62C21.7869 130.96 21.6066 131.399 21.6066 131.879H22.6066ZM22.8346 131.327L23.5417 132.034C23.5321 132.043 23.5074 132.064 23.4683 132.08C23.4293 132.096 23.3983 132.099 23.3866 132.099V131.099V130.099C22.9068 130.099 22.468 130.279 22.1275 130.62L22.8346 131.327ZM23.3866 131.099V132.099C23.3839 132.099 23.3541 132.098 23.3108 132.08C23.266 132.061 23.2323 132.035 23.2126 132.014L23.9386 131.327L24.6645 130.639C24.3174 130.272 23.8637 130.099 23.3866 130.099V131.099ZM23.9386 131.327L23.2315 132.034C23.2219 132.024 23.2015 131.999 23.1853 131.96C23.1692 131.921 23.1666 131.89 23.1666 131.879H24.1666H25.1666C25.1666 131.399 24.9862 130.96 24.6457 130.62L23.9386 131.327ZM24.1666 131.879H23.1666C23.1666 131.867 23.1692 131.836 23.1853 131.797C23.2015 131.758 23.2219 131.733 23.2315 131.724L23.9386 132.431L24.6457 133.138C24.9862 132.797 25.1666 132.358 25.1666 131.879H24.1666ZM23.9386 132.431L23.2126 131.743C23.2323 131.722 23.266 131.696 23.3108 131.677C23.3541 131.659 23.3839 131.659 23.3866 131.659V132.659V133.659C23.8637 133.659 24.3174 133.485 24.6645 133.118L23.9386 132.431Z" fill="#979797" mask="url(#path-3-inside-1_64_1874)"/>
<path d="M89.001 113.007V107.007" stroke="#979797"/>
<mask id="path-6-inside-2_64_1874" fill="white">
<path d="M80.126 132.683C79.51 132.683 78.97 132.555 78.506 132.299C78.05 132.035 77.714 131.663 77.498 131.183L78.446 130.631C78.702 131.271 79.262 131.591 80.126 131.591C80.67 131.591 81.09 131.463 81.386 131.207C81.69 130.943 81.842 130.563 81.842 130.067V124.127H82.946V130.067C82.946 130.907 82.678 131.555 82.142 132.011C81.606 132.459 80.934 132.683 80.126 132.683ZM89.4348 127.559V126.527H90.4788V132.527H89.4348V131.495C88.9228 132.287 88.1668 132.683 87.1668 132.683C86.3188 132.683 85.6028 132.379 85.0188 131.771C84.4268 131.155 84.1308 130.407 84.1308 129.527C84.1308 128.655 84.4268 127.911 85.0188 127.295C85.6108 126.679 86.3268 126.371 87.1668 126.371C88.1668 126.371 88.9228 126.767 89.4348 127.559ZM87.2988 131.675C87.9068 131.675 88.4148 131.471 88.8228 131.063C89.2308 130.639 89.4348 130.127 89.4348 129.527C89.4348 128.919 89.2308 128.411 88.8228 128.003C88.4148 127.587 87.9068 127.379 87.2988 127.379C86.6988 127.379 86.1948 127.587 85.7868 128.003C85.3788 128.411 85.1748 128.919 85.1748 129.527C85.1748 130.127 85.3788 130.639 85.7868 131.063C86.1948 131.471 86.6988 131.675 87.2988 131.675ZM95.0486 126.371C95.7526 126.371 96.3166 126.595 96.7406 127.043C97.1646 127.483 97.3766 128.083 97.3766 128.843V132.527H96.3326V128.903C96.3326 128.423 96.2006 128.047 95.9366 127.775C95.6726 127.503 95.3086 127.367 94.8446 127.367C94.3086 127.367 93.8846 127.535 93.5726 127.871C93.2606 128.199 93.1046 128.691 93.1046 129.347V132.527H92.0606V126.527H93.1046V127.391C93.5206 126.711 94.1686 126.371 95.0486 126.371ZM99.494 132.659C99.278 132.659 99.094 132.583 98.942 132.431C98.79 132.279 98.714 132.095 98.714 131.879C98.714 131.663 98.79 131.479 98.942 131.327C99.094 131.175 99.278 131.099 99.494 131.099C99.718 131.099 99.902 131.175 100.046 131.327C100.198 131.479 100.274 131.663 100.274 131.879C100.274 132.095 100.198 132.279 100.046 132.431C99.902 132.583 99.718 132.659 99.494 132.659Z"/>
</mask>
<path d="M80.126 132.683C79.51 132.683 78.97 132.555 78.506 132.299C78.05 132.035 77.714 131.663 77.498 131.183L78.446 130.631C78.702 131.271 79.262 131.591 80.126 131.591C80.67 131.591 81.09 131.463 81.386 131.207C81.69 130.943 81.842 130.563 81.842 130.067V124.127H82.946V130.067C82.946 130.907 82.678 131.555 82.142 132.011C81.606 132.459 80.934 132.683 80.126 132.683ZM89.4348 127.559V126.527H90.4788V132.527H89.4348V131.495C88.9228 132.287 88.1668 132.683 87.1668 132.683C86.3188 132.683 85.6028 132.379 85.0188 131.771C84.4268 131.155 84.1308 130.407 84.1308 129.527C84.1308 128.655 84.4268 127.911 85.0188 127.295C85.6108 126.679 86.3268 126.371 87.1668 126.371C88.1668 126.371 88.9228 126.767 89.4348 127.559ZM87.2988 131.675C87.9068 131.675 88.4148 131.471 88.8228 131.063C89.2308 130.639 89.4348 130.127 89.4348 129.527C89.4348 128.919 89.2308 128.411 88.8228 128.003C88.4148 127.587 87.9068 127.379 87.2988 127.379C86.6988 127.379 86.1948 127.587 85.7868 128.003C85.3788 128.411 85.1748 128.919 85.1748 129.527C85.1748 130.127 85.3788 130.639 85.7868 131.063C86.1948 131.471 86.6988 131.675 87.2988 131.675ZM95.0486 126.371C95.7526 126.371 96.3166 126.595 96.7406 127.043C97.1646 127.483 97.3766 128.083 97.3766 128.843V132.527H96.3326V128.903C96.3326 128.423 96.2006 128.047 95.9366 127.775C95.6726 127.503 95.3086 127.367 94.8446 127.367C94.3086 127.367 93.8846 127.535 93.5726 127.871C93.2606 128.199 93.1046 128.691 93.1046 129.347V132.527H92.0606V126.527H93.1046V127.391C93.5206 126.711 94.1686 126.371 95.0486 126.371ZM99.494 132.659C99.278 132.659 99.094 132.583 98.942 132.431C98.79 132.279 98.714 132.095 98.714 131.879C98.714 131.663 98.79 131.479 98.942 131.327C99.094 131.175 99.278 131.099 99.494 131.099C99.718 131.099 99.902 131.175 100.046 131.327C100.198 131.479 100.274 131.663 100.274 131.879C100.274 132.095 100.198 132.279 100.046 132.431C99.902 132.583 99.718 132.659 99.494 132.659Z" fill="#979797"/>
<path d="M78.506 132.299L78.005 133.164L78.0139 133.169L78.0229 133.174L78.506 132.299ZM77.498 131.183L76.9948 130.318L76.2165 130.772L76.5861 131.593L77.498 131.183ZM78.446 130.631L79.3745 130.259L78.9441 129.183L77.9428 129.766L78.446 130.631ZM81.386 131.207L82.0401 131.963L82.0417 131.962L81.386 131.207ZM81.842 124.127V123.127H80.842V124.127H81.842ZM82.946 124.127H83.946V123.127H82.946V124.127ZM82.142 132.011L82.7833 132.778L82.79 132.772L82.142 132.011ZM80.126 132.683V131.683C79.6513 131.683 79.2827 131.585 78.9891 131.423L78.506 132.299L78.0229 133.174C78.6573 133.524 79.3687 133.683 80.126 133.683V132.683ZM78.506 132.299L79.007 131.433C78.7321 131.274 78.5399 131.061 78.4099 130.772L77.498 131.183L76.5861 131.593C76.8881 132.264 77.3679 132.795 78.005 133.164L78.506 132.299ZM77.498 131.183L78.0012 132.047L78.9492 131.495L78.446 130.631L77.9428 129.766L76.9948 130.318L77.498 131.183ZM78.446 130.631L77.5175 131.002C77.7232 131.516 78.0718 131.939 78.5619 132.219C79.0357 132.49 79.577 132.591 80.126 132.591V131.591V130.591C79.811 130.591 79.6402 130.532 79.5541 130.482C79.4842 130.442 79.4248 130.385 79.3745 130.259L78.446 130.631ZM80.126 131.591V132.591C80.8169 132.591 81.5025 132.428 82.0401 131.963L81.386 131.207L80.7318 130.45C80.6775 130.497 80.5231 130.591 80.126 130.591V131.591ZM81.386 131.207L82.0417 131.962C82.614 131.465 82.842 130.779 82.842 130.067H81.842H80.842C80.842 130.346 80.7659 130.421 80.7303 130.452L81.386 131.207ZM81.842 130.067H82.842V124.127H81.842H80.842V130.067H81.842ZM81.842 124.127V125.127H82.946V124.127V123.127H81.842V124.127ZM82.946 124.127H81.946V130.067H82.946H83.946V124.127H82.946ZM82.946 130.067H81.946C81.946 130.676 81.7631 131.02 81.494 131.249L82.142 132.011L82.79 132.772C83.5929 132.089 83.946 131.137 83.946 130.067H82.946ZM82.142 132.011L81.5007 131.243C81.1722 131.518 80.7383 131.683 80.126 131.683V132.683V133.683C81.1297 133.683 82.0398 133.399 82.7833 132.778L82.142 132.011ZM89.4348 127.559L88.595 128.102L90.4348 130.947V127.559H89.4348ZM89.4348 126.527V125.527H88.4348V126.527H89.4348ZM90.4788 126.527H91.4788V125.527H90.4788V126.527ZM90.4788 132.527V133.527H91.4788V132.527H90.4788ZM89.4348 132.527H88.4348V133.527H89.4348V132.527ZM89.4348 131.495H90.4348V128.106L88.595 130.952L89.4348 131.495ZM85.0188 131.771L85.74 131.078L85.7398 131.078L85.0188 131.771ZM88.8228 131.063L89.5299 131.77L89.5367 131.763L89.5434 131.756L88.8228 131.063ZM88.8228 128.003L88.1088 128.703L88.1157 128.71L88.8228 128.003ZM85.7868 128.003L86.4939 128.71L86.5007 128.703L85.7868 128.003ZM85.7868 131.063L85.0662 131.756L85.0729 131.763L85.0797 131.77L85.7868 131.063ZM89.4348 127.559H90.4348V126.527H89.4348H88.4348V127.559H89.4348ZM89.4348 126.527V127.527H90.4788V126.527V125.527H89.4348V126.527ZM90.4788 126.527H89.4788V132.527H90.4788H91.4788V126.527H90.4788ZM90.4788 132.527V131.527H89.4348V132.527V133.527H90.4788V132.527ZM89.4348 132.527H90.4348V131.495H89.4348H88.4348V132.527H89.4348ZM89.4348 131.495L88.595 130.952C88.2802 131.439 87.852 131.683 87.1668 131.683V132.683V133.683C88.4816 133.683 89.5654 133.135 90.2746 132.038L89.4348 131.495ZM87.1668 132.683V131.683C86.5892 131.683 86.1342 131.488 85.74 131.078L85.0188 131.771L84.2976 132.463C85.0714 133.269 86.0484 133.683 87.1668 133.683V132.683ZM85.0188 131.771L85.7398 131.078C85.3327 130.654 85.1308 130.157 85.1308 129.527H84.1308H83.1308C83.1308 130.656 83.5209 131.655 84.2978 132.464L85.0188 131.771ZM84.1308 129.527H85.1308C85.1308 128.907 85.3309 128.413 85.7398 127.988L85.0188 127.295L84.2978 126.602C83.5227 127.408 83.1308 128.402 83.1308 129.527H84.1308ZM85.0188 127.295L85.7398 127.988C86.1469 127.564 86.6041 127.371 87.1668 127.371V126.371V125.371C86.0495 125.371 85.0747 125.793 84.2978 126.602L85.0188 127.295ZM87.1668 126.371V127.371C87.852 127.371 88.2802 127.615 88.595 128.102L89.4348 127.559L90.2746 127.016C89.5654 125.919 88.4816 125.371 87.1668 125.371V126.371ZM87.2988 131.675V132.675C88.1562 132.675 88.9235 132.376 89.5299 131.77L88.8228 131.063L88.1157 130.356C87.9061 130.565 87.6574 130.675 87.2988 130.675V131.675ZM88.8228 131.063L89.5434 131.756C90.1346 131.142 90.4348 130.379 90.4348 129.527H89.4348H88.4348C88.4348 129.874 88.3271 130.136 88.1022 130.369L88.8228 131.063ZM89.4348 129.527H90.4348C90.4348 128.669 90.1364 127.902 89.5299 127.296L88.8228 128.003L88.1157 128.71C88.3252 128.919 88.4348 129.168 88.4348 129.527H89.4348ZM88.8228 128.003L89.5367 127.302C88.9317 126.686 88.1623 126.379 87.2988 126.379V127.379V128.379C87.6513 128.379 87.8979 128.488 88.1089 128.703L88.8228 128.003ZM87.2988 127.379V126.379C86.4392 126.379 85.6751 126.688 85.0729 127.302L85.7868 128.003L86.5007 128.703C86.7145 128.485 86.9584 128.379 87.2988 128.379V127.379ZM85.7868 128.003L85.0797 127.296C84.4732 127.902 84.1748 128.669 84.1748 129.527H85.1748H86.1748C86.1748 129.168 86.2844 128.919 86.4939 128.71L85.7868 128.003ZM85.1748 129.527H84.1748C84.1748 130.379 84.4751 131.142 85.0662 131.756L85.7868 131.063L86.5074 130.369C86.2826 130.136 86.1748 129.874 86.1748 129.527H85.1748ZM85.7868 131.063L85.0797 131.77C85.6834 132.373 86.4454 132.675 87.2988 132.675V131.675V130.675C86.9522 130.675 86.7062 130.568 86.4939 130.356L85.7868 131.063ZM96.7406 127.043L96.0142 127.73L96.0205 127.737L96.7406 127.043ZM97.3766 132.527V133.527H98.3766V132.527H97.3766ZM96.3326 132.527H95.3326V133.527H96.3326V132.527ZM95.9366 127.775L96.6541 127.078L96.6541 127.078L95.9366 127.775ZM93.5726 127.871L94.2972 128.56L94.3053 128.551L93.5726 127.871ZM93.1046 132.527V133.527H94.1046V132.527H93.1046ZM92.0606 132.527H91.0606V133.527H92.0606V132.527ZM92.0606 126.527V125.527H91.0606V126.527H92.0606ZM93.1046 126.527H94.1046V125.527H93.1046V126.527ZM93.1046 127.391H92.1046V130.941L93.9576 127.912L93.1046 127.391ZM95.0486 126.371V127.371C95.5204 127.371 95.8065 127.511 96.0143 127.73L96.7406 127.043L97.4668 126.355C96.8266 125.679 95.9847 125.371 95.0486 125.371V126.371ZM96.7406 127.043L96.0205 127.737C96.2236 127.947 96.3766 128.275 96.3766 128.843H97.3766H98.3766C98.3766 127.89 98.1055 127.018 97.4606 126.349L96.7406 127.043ZM97.3766 128.843H96.3766V132.527H97.3766H98.3766V128.843H97.3766ZM97.3766 132.527V131.527H96.3326V132.527V133.527H97.3766V132.527ZM96.3326 132.527H97.3326V128.903H96.3326H95.3326V132.527H96.3326ZM96.3326 128.903H97.3326C97.3326 128.235 97.1441 127.583 96.6541 127.078L95.9366 127.775L95.219 128.471C95.257 128.51 95.3326 128.61 95.3326 128.903H96.3326ZM95.9366 127.775L96.6541 127.078C96.161 126.57 95.5142 126.367 94.8446 126.367V127.367V128.367C95.1029 128.367 95.1841 128.435 95.219 128.471L95.9366 127.775ZM94.8446 127.367V126.367C94.0818 126.367 93.3733 126.616 92.8398 127.19L93.5726 127.871L94.3053 128.551C94.3958 128.454 94.5353 128.367 94.8446 128.367V127.367ZM93.5726 127.871L92.848 127.181C92.2935 127.764 92.1046 128.549 92.1046 129.347H93.1046H94.1046C94.1046 128.833 94.2276 128.633 94.2971 128.56L93.5726 127.871ZM93.1046 129.347H92.1046V132.527H93.1046H94.1046V129.347H93.1046ZM93.1046 132.527V131.527H92.0606V132.527V133.527H93.1046V132.527ZM92.0606 132.527H93.0606V126.527H92.0606H91.0606V132.527H92.0606ZM92.0606 126.527V127.527H93.1046V126.527V125.527H92.0606V126.527ZM93.1046 126.527H92.1046V127.391H93.1046H94.1046V126.527H93.1046ZM93.1046 127.391L93.9576 127.912C94.1703 127.565 94.4734 127.371 95.0486 127.371V126.371V125.371C93.8637 125.371 92.8708 125.857 92.2515 126.869L93.1046 127.391ZM98.942 132.431L99.6491 131.724L98.942 132.431ZM100.046 131.327L99.32 132.014L99.3293 132.024L99.3389 132.034L100.046 131.327ZM100.046 132.431L99.3389 131.724L99.3293 131.733L99.32 131.743L100.046 132.431ZM99.494 132.659V131.659C99.5058 131.659 99.5367 131.661 99.5758 131.677C99.6149 131.694 99.6395 131.714 99.6491 131.724L98.942 132.431L98.2349 133.138C98.5754 133.478 99.0142 133.659 99.494 133.659V132.659ZM98.942 132.431L99.6491 131.724C99.6587 131.733 99.6791 131.758 99.6953 131.797C99.7114 131.836 99.714 131.867 99.714 131.879H98.714H97.714C97.714 132.358 97.8943 132.797 98.2349 133.138L98.942 132.431ZM98.714 131.879H99.714C99.714 131.89 99.7114 131.921 99.6953 131.96C99.6791 131.999 99.6587 132.024 99.6491 132.034L98.942 131.327L98.2349 130.62C97.8943 130.96 97.714 131.399 97.714 131.879H98.714ZM98.942 131.327L99.6491 132.034C99.6395 132.043 99.6149 132.064 99.5758 132.08C99.5367 132.096 99.5058 132.099 99.494 132.099V131.099V130.099C99.0142 130.099 98.5754 130.279 98.2349 130.62L98.942 131.327ZM99.494 131.099V132.099C99.4914 132.099 99.4615 132.098 99.4182 132.08C99.3734 132.061 99.3397 132.035 99.32 132.014L100.046 131.327L100.772 130.639C100.425 130.272 99.9712 130.099 99.494 130.099V131.099ZM100.046 131.327L99.3389 132.034C99.3293 132.024 99.3089 131.999 99.2927 131.96C99.2766 131.921 99.274 131.89 99.274 131.879H100.274H101.274C101.274 131.399 101.094 130.96 100.753 130.62L100.046 131.327ZM100.274 131.879H99.274C99.274 131.867 99.2766 131.836 99.2927 131.797C99.3089 131.758 99.3293 131.733 99.3389 131.724L100.046 132.431L100.753 133.138C101.094 132.797 101.274 132.358 101.274 131.879H100.274ZM100.046 132.431L99.32 131.743C99.3397 131.722 99.3734 131.696 99.4182 131.677C99.4615 131.659 99.4914 131.659 99.494 131.659V132.659V133.659C99.9712 133.659 100.425 133.485 100.772 133.118L100.046 132.431Z" fill="#979797" mask="url(#path-6-inside-2_64_1874)"/>
<path d="M165.001 113.007V107.007" stroke="#979797"/>
<mask id="path-9-inside-3_64_1874" fill="white">
<path d="M159.13 124.127V125.183H155.41V127.907H158.974V128.963H155.41V132.527H154.294V124.127H159.13ZM166.133 130.007H161.105C161.209 130.535 161.453 130.951 161.837 131.255C162.221 131.551 162.701 131.699 163.277 131.699C164.069 131.699 164.645 131.407 165.005 130.823L165.893 131.327C165.301 132.231 164.421 132.683 163.253 132.683C162.309 132.683 161.533 132.387 160.925 131.795C160.333 131.187 160.037 130.431 160.037 129.527C160.037 128.615 160.329 127.863 160.913 127.271C161.497 126.671 162.253 126.371 163.181 126.371C164.061 126.371 164.777 126.683 165.329 127.307C165.889 127.915 166.169 128.659 166.169 129.539C166.169 129.691 166.157 129.847 166.133 130.007ZM163.181 127.355C162.629 127.355 162.165 127.511 161.789 127.823C161.421 128.135 161.193 128.559 161.105 129.095H165.113C165.025 128.543 164.805 128.115 164.453 127.811C164.101 127.507 163.677 127.355 163.181 127.355ZM170.681 126.371C171.521 126.371 172.237 126.679 172.829 127.295C173.421 127.911 173.717 128.655 173.717 129.527C173.717 130.407 173.421 131.155 172.829 131.771C172.245 132.379 171.529 132.683 170.681 132.683C169.689 132.683 168.933 132.287 168.413 131.495V132.527H167.369V124.127H168.413V127.559C168.933 126.767 169.689 126.371 170.681 126.371ZM170.549 131.675C171.149 131.675 171.653 131.471 172.061 131.063C172.469 130.639 172.673 130.127 172.673 129.527C172.673 128.919 172.469 128.411 172.061 128.003C171.653 127.587 171.149 127.379 170.549 127.379C169.941 127.379 169.433 127.587 169.025 128.003C168.617 128.411 168.413 128.919 168.413 129.527C168.413 130.127 168.617 130.639 169.025 131.063C169.433 131.471 169.941 131.675 170.549 131.675ZM175.142 132.659C174.926 132.659 174.742 132.583 174.59 132.431C174.438 132.279 174.362 132.095 174.362 131.879C174.362 131.663 174.438 131.479 174.59 131.327C174.742 131.175 174.926 131.099 175.142 131.099C175.366 131.099 175.55 131.175 175.694 131.327C175.846 131.479 175.922 131.663 175.922 131.879C175.922 132.095 175.846 132.279 175.694 132.431C175.55 132.583 175.366 132.659 175.142 132.659Z"/>
</mask>
<path d="M159.13 124.127V125.183H155.41V127.907H158.974V128.963H155.41V132.527H154.294V124.127H159.13ZM166.133 130.007H161.105C161.209 130.535 161.453 130.951 161.837 131.255C162.221 131.551 162.701 131.699 163.277 131.699C164.069 131.699 164.645 131.407 165.005 130.823L165.893 131.327C165.301 132.231 164.421 132.683 163.253 132.683C162.309 132.683 161.533 132.387 160.925 131.795C160.333 131.187 160.037 130.431 160.037 129.527C160.037 128.615 160.329 127.863 160.913 127.271C161.497 126.671 162.253 126.371 163.181 126.371C164.061 126.371 164.777 126.683 165.329 127.307C165.889 127.915 166.169 128.659 166.169 129.539C166.169 129.691 166.157 129.847 166.133 130.007ZM163.181 127.355C162.629 127.355 162.165 127.511 161.789 127.823C161.421 128.135 161.193 128.559 161.105 129.095H165.113C165.025 128.543 164.805 128.115 164.453 127.811C164.101 127.507 163.677 127.355 163.181 127.355ZM170.681 126.371C171.521 126.371 172.237 126.679 172.829 127.295C173.421 127.911 173.717 128.655 173.717 129.527C173.717 130.407 173.421 131.155 172.829 131.771C172.245 132.379 171.529 132.683 170.681 132.683C169.689 132.683 168.933 132.287 168.413 131.495V132.527H167.369V124.127H168.413V127.559C168.933 126.767 169.689 126.371 170.681 126.371ZM170.549 131.675C171.149 131.675 171.653 131.471 172.061 131.063C172.469 130.639 172.673 130.127 172.673 129.527C172.673 128.919 172.469 128.411 172.061 128.003C171.653 127.587 171.149 127.379 170.549 127.379C169.941 127.379 169.433 127.587 169.025 128.003C168.617 128.411 168.413 128.919 168.413 129.527C168.413 130.127 168.617 130.639 169.025 131.063C169.433 131.471 169.941 131.675 170.549 131.675ZM175.142 132.659C174.926 132.659 174.742 132.583 174.59 132.431C174.438 132.279 174.362 132.095 174.362 131.879C174.362 131.663 174.438 131.479 174.59 131.327C174.742 131.175 174.926 131.099 175.142 131.099C175.366 131.099 175.55 131.175 175.694 131.327C175.846 131.479 175.922 131.663 175.922 131.879C175.922 132.095 175.846 132.279 175.694 132.431C175.55 132.583 175.366 132.659 175.142 132.659Z" fill="#979797"/>
<path d="M159.13 124.127H160.13V123.127H159.13V124.127ZM159.13 125.183V126.183H160.13V125.183H159.13ZM155.41 125.183V124.183H154.41V125.183H155.41ZM155.41 127.907H154.41V128.907H155.41V127.907ZM158.974 127.907H159.974V126.907H158.974V127.907ZM158.974 128.963V129.963H159.974V128.963H158.974ZM155.41 128.963V127.963H154.41V128.963H155.41ZM155.41 132.527V133.527H156.41V132.527H155.41ZM154.294 132.527H153.294V133.527H154.294V132.527ZM154.294 124.127V123.127H153.294V124.127H154.294ZM159.13 124.127H158.13V125.183H159.13H160.13V124.127H159.13ZM159.13 125.183V124.183H155.41V125.183V126.183H159.13V125.183ZM155.41 125.183H154.41V127.907H155.41H156.41V125.183H155.41ZM155.41 127.907V128.907H158.974V127.907V126.907H155.41V127.907ZM158.974 127.907H157.974V128.963H158.974H159.974V127.907H158.974ZM158.974 128.963V127.963H155.41V128.963V129.963H158.974V128.963ZM155.41 128.963H154.41V132.527H155.41H156.41V128.963H155.41ZM155.41 132.527V131.527H154.294V132.527V133.527H155.41V132.527ZM154.294 132.527H155.294V124.127H154.294H153.294V132.527H154.294ZM154.294 124.127V125.127H159.13V124.127V123.127H154.294V124.127ZM166.133 130.007V131.007H166.994L167.122 130.155L166.133 130.007ZM161.105 130.007V129.007H159.889L160.124 130.2L161.105 130.007ZM161.837 131.255L161.216 132.039L161.227 132.047L161.837 131.255ZM165.005 130.823L165.499 129.953L164.66 129.477L164.154 130.298L165.005 130.823ZM165.893 131.327L166.73 131.874L167.313 130.983L166.387 130.457L165.893 131.327ZM160.925 131.795L160.209 132.492L160.218 132.502L160.227 132.511L160.925 131.795ZM160.913 127.271L161.625 127.973L161.63 127.968L160.913 127.271ZM165.329 127.307L164.58 127.969L164.587 127.977L164.594 127.984L165.329 127.307ZM161.789 127.823L161.15 127.053L161.142 127.06L161.789 127.823ZM161.105 129.095L160.118 128.933L159.927 130.095H161.105V129.095ZM165.113 129.095V130.095H166.285L166.101 128.937L165.113 129.095ZM164.453 127.811L163.799 128.567H163.799L164.453 127.811ZM166.133 130.007V129.007H161.105V130.007V131.007H166.133V130.007ZM161.105 130.007L160.124 130.2C160.269 130.937 160.627 131.572 161.216 132.039L161.837 131.255L162.458 130.471C162.279 130.329 162.149 130.133 162.086 129.813L161.105 130.007ZM161.837 131.255L161.227 132.047C161.817 132.502 162.523 132.699 163.277 132.699V131.699V130.699C162.879 130.699 162.625 130.6 162.448 130.463L161.837 131.255ZM163.277 131.699V132.699C164.353 132.699 165.283 132.277 165.856 131.347L165.005 130.823L164.154 130.298C164.007 130.536 163.785 130.699 163.277 130.699V131.699ZM165.005 130.823L164.511 131.692L165.399 132.196L165.893 131.327L166.387 130.457L165.499 129.953L165.005 130.823ZM165.893 131.327L165.056 130.779C164.666 131.375 164.116 131.683 163.253 131.683V132.683V133.683C164.726 133.683 165.936 133.087 166.73 131.874L165.893 131.327ZM163.253 132.683V131.683C162.538 131.683 162.022 131.467 161.623 131.078L160.925 131.795L160.227 132.511C161.044 133.306 162.08 133.683 163.253 133.683V132.683ZM160.925 131.795L161.642 131.097C161.244 130.689 161.037 130.189 161.037 129.527H160.037H159.037C159.037 130.672 159.422 131.684 160.209 132.492L160.925 131.795ZM160.037 129.527H161.037C161.037 128.85 161.244 128.359 161.625 127.973L160.913 127.271L160.201 126.568C159.414 127.366 159.037 128.38 159.037 129.527H160.037ZM160.913 127.271L161.63 127.968C162.004 127.583 162.491 127.371 163.181 127.371V126.371V125.371C162.015 125.371 160.99 125.758 160.196 126.573L160.913 127.271ZM163.181 126.371V127.371C163.793 127.371 164.23 127.573 164.58 127.969L165.329 127.307L166.078 126.644C165.324 125.792 164.329 125.371 163.181 125.371V126.371ZM165.329 127.307L164.594 127.984C164.972 128.395 165.169 128.892 165.169 129.539H166.169H167.169C167.169 128.425 166.806 127.434 166.065 126.629L165.329 127.307ZM166.169 129.539H165.169C165.169 129.638 165.161 129.744 165.144 129.858L166.133 130.007L167.122 130.155C167.153 129.949 167.169 129.743 167.169 129.539H166.169ZM163.181 127.355V126.355C162.428 126.355 161.729 126.573 161.15 127.053L161.789 127.823L162.428 128.592C162.601 128.448 162.83 128.355 163.181 128.355V127.355ZM161.789 127.823L161.142 127.06C160.57 127.545 160.24 128.194 160.118 128.933L161.105 129.095L162.092 129.257C162.147 128.923 162.272 128.724 162.436 128.585L161.789 127.823ZM161.105 129.095V130.095H165.113V129.095V128.095H161.105V129.095ZM165.113 129.095L166.101 128.937C165.983 128.201 165.671 127.542 165.107 127.054L164.453 127.811L163.799 128.567C163.939 128.688 164.067 128.884 164.126 129.252L165.113 129.095ZM164.453 127.811L165.107 127.054C164.56 126.582 163.9 126.355 163.181 126.355V127.355V128.355C163.454 128.355 163.642 128.431 163.799 128.567L164.453 127.811ZM172.829 131.771L172.108 131.078L172.108 131.078L172.829 131.771ZM168.413 131.495L169.249 130.946L167.413 128.15V131.495H168.413ZM168.413 132.527V133.527H169.413V132.527H168.413ZM167.369 132.527H166.369V133.527H167.369V132.527ZM167.369 124.127V123.127H166.369V124.127H167.369ZM168.413 124.127H169.413V123.127H168.413V124.127ZM168.413 127.559H167.413V130.904L169.249 128.107L168.413 127.559ZM172.061 131.063L172.768 131.77L172.775 131.763L172.782 131.756L172.061 131.063ZM172.061 128.003L171.347 128.703L171.354 128.71L172.061 128.003ZM169.025 128.003L169.732 128.71L169.739 128.703L169.025 128.003ZM169.025 131.063L168.305 131.756L168.311 131.763L168.318 131.77L169.025 131.063ZM170.681 126.371V127.371C171.244 127.371 171.701 127.564 172.108 127.988L172.829 127.295L173.55 126.602C172.773 125.793 171.798 125.371 170.681 125.371V126.371ZM172.829 127.295L172.108 127.988C172.517 128.413 172.717 128.907 172.717 129.527H173.717H174.717C174.717 128.402 174.325 127.408 173.55 126.602L172.829 127.295ZM173.717 129.527H172.717C172.717 130.157 172.515 130.654 172.108 131.078L172.829 131.771L173.55 132.464C174.327 131.655 174.717 130.656 174.717 129.527H173.717ZM172.829 131.771L172.108 131.078C171.714 131.488 171.259 131.683 170.681 131.683V132.683V133.683C171.8 133.683 172.777 133.269 173.55 132.463L172.829 131.771ZM170.681 132.683V131.683C170.007 131.683 169.574 131.441 169.249 130.946L168.413 131.495L167.577 132.043C168.292 133.133 169.371 133.683 170.681 133.683V132.683ZM168.413 131.495H167.413V132.527H168.413H169.413V131.495H168.413ZM168.413 132.527V131.527H167.369V132.527V133.527H168.413V132.527ZM167.369 132.527H168.369V124.127H167.369H166.369V132.527H167.369ZM167.369 124.127V125.127H168.413V124.127V123.127H167.369V124.127ZM168.413 124.127H167.413V127.559H168.413H169.413V124.127H168.413ZM168.413 127.559L169.249 128.107C169.574 127.613 170.007 127.371 170.681 127.371V126.371V125.371C169.371 125.371 168.292 125.921 167.577 127.01L168.413 127.559ZM170.549 131.675V132.675C171.403 132.675 172.165 132.373 172.768 131.77L172.061 131.063L171.354 130.356C171.142 130.568 170.896 130.675 170.549 130.675V131.675ZM172.061 131.063L172.782 131.756C173.373 131.142 173.673 130.379 173.673 129.527H172.673H171.673C171.673 129.874 171.565 130.136 171.341 130.369L172.061 131.063ZM172.673 129.527H173.673C173.673 128.669 173.375 127.902 172.768 127.296L172.061 128.003L171.354 128.71C171.564 128.919 171.673 129.168 171.673 129.527H172.673ZM172.061 128.003L172.775 127.302C172.173 126.688 171.409 126.379 170.549 126.379V127.379V128.379C170.89 128.379 171.133 128.485 171.347 128.703L172.061 128.003ZM170.549 127.379V126.379C169.686 126.379 168.916 126.686 168.311 127.302L169.025 128.003L169.739 128.703C169.95 128.488 170.197 128.379 170.549 128.379V127.379ZM169.025 128.003L168.318 127.296C167.712 127.902 167.413 128.669 167.413 129.527H168.413H169.413C169.413 129.168 169.523 128.919 169.732 128.71L169.025 128.003ZM168.413 129.527H167.413C167.413 130.379 167.713 131.142 168.305 131.756L169.025 131.063L169.746 130.369C169.521 130.136 169.413 129.874 169.413 129.527H168.413ZM169.025 131.063L168.318 131.77C168.924 132.376 169.692 132.675 170.549 132.675V131.675V130.675C170.191 130.675 169.942 130.565 169.732 130.356L169.025 131.063ZM174.59 132.431L175.298 131.724L174.59 132.431ZM175.694 131.327L174.968 132.014L174.978 132.024L174.987 132.034L175.694 131.327ZM175.694 132.431L174.987 131.724L174.978 131.733L174.968 131.743L175.694 132.431ZM175.142 132.659V131.659C175.154 131.659 175.185 131.661 175.224 131.677C175.263 131.694 175.288 131.714 175.298 131.724L174.59 132.431L173.883 133.138C174.224 133.478 174.663 133.659 175.142 133.659V132.659ZM174.59 132.431L175.298 131.724C175.307 131.733 175.328 131.758 175.344 131.797C175.36 131.836 175.362 131.867 175.362 131.879H174.362H173.362C173.362 132.358 173.543 132.797 173.883 133.138L174.59 132.431ZM174.362 131.879H175.362C175.362 131.89 175.36 131.921 175.344 131.96C175.328 131.999 175.307 132.024 175.298 132.034L174.59 131.327L173.883 130.62C173.543 130.96 173.362 131.399 173.362 131.879H174.362ZM174.59 131.327L175.298 132.034C175.288 132.043 175.263 132.064 175.224 132.08C175.185 132.096 175.154 132.099 175.142 132.099V131.099V130.099C174.663 130.099 174.224 130.279 173.883 130.62L174.59 131.327ZM175.142 131.099V132.099C175.14 132.099 175.11 132.098 175.067 132.08C175.022 132.061 174.988 132.035 174.968 132.014L175.694 131.327L176.42 130.639C176.073 130.272 175.62 130.099 175.142 130.099V131.099ZM175.694 131.327L174.987 132.034C174.978 132.024 174.957 131.999 174.941 131.96C174.925 131.921 174.922 131.89 174.922 131.879H175.922H176.922C176.922 131.399 176.742 130.96 176.402 130.62L175.694 131.327ZM175.922 131.879H174.922C174.922 131.867 174.925 131.836 174.941 131.797C174.957 131.758 174.978 131.733 174.987 131.724L175.694 132.431L176.402 133.138C176.742 132.797 176.922 132.358 176.922 131.879H175.922ZM175.694 132.431L174.968 131.743C174.988 131.722 175.022 131.696 175.067 131.677C175.11 131.659 175.14 131.659 175.142 131.659V132.659V133.659C175.62 133.659 176.073 133.485 176.42 133.118L175.694 132.431Z" fill="#979797" mask="url(#path-9-inside-3_64_1874)"/>
<path d="M241.001 113.007V107.007" stroke="#979797"/>
<mask id="path-12-inside-4_64_1874" fill="white">
<path d="M236.876 124.127H238.136V132.527H237.032V125.963L234.284 130.535H234.14L231.392 125.975V132.527H230.276V124.127H231.536L234.212 128.567L236.876 124.127ZM244.792 127.559V126.527H245.836V132.527H244.792V131.495C244.28 132.287 243.524 132.683 242.524 132.683C241.676 132.683 240.96 132.379 240.376 131.771C239.784 131.155 239.488 130.407 239.488 129.527C239.488 128.655 239.784 127.911 240.376 127.295C240.968 126.679 241.684 126.371 242.524 126.371C243.524 126.371 244.28 126.767 244.792 127.559ZM242.656 131.675C243.264 131.675 243.772 131.471 244.18 131.063C244.588 130.639 244.792 130.127 244.792 129.527C244.792 128.919 244.588 128.411 244.18 128.003C243.772 127.587 243.264 127.379 242.656 127.379C242.056 127.379 241.552 127.587 241.144 128.003C240.736 128.411 240.532 128.919 240.532 129.527C240.532 130.127 240.736 130.639 241.144 131.063C241.552 131.471 242.056 131.675 242.656 131.675ZM248.462 126.527V127.535C248.806 126.791 249.43 126.419 250.334 126.419V127.511C249.822 127.487 249.382 127.623 249.014 127.919C248.646 128.215 248.462 128.691 248.462 129.347V132.527H247.418V126.527H248.462ZM251.16 132.659C250.944 132.659 250.76 132.583 250.608 132.431C250.456 132.279 250.38 132.095 250.38 131.879C250.38 131.663 250.456 131.479 250.608 131.327C250.76 131.175 250.944 131.099 251.16 131.099C251.384 131.099 251.568 131.175 251.712 131.327C251.864 131.479 251.94 131.663 251.94 131.879C251.94 132.095 251.864 132.279 251.712 132.431C251.568 132.583 251.384 132.659 251.16 132.659Z"/>
</mask>
<path d="M236.876 124.127H238.136V132.527H237.032V125.963L234.284 130.535H234.14L231.392 125.975V132.527H230.276V124.127H231.536L234.212 128.567L236.876 124.127ZM244.792 127.559V126.527H245.836V132.527H244.792V131.495C244.28 132.287 243.524 132.683 242.524 132.683C241.676 132.683 240.96 132.379 240.376 131.771C239.784 131.155 239.488 130.407 239.488 129.527C239.488 128.655 239.784 127.911 240.376 127.295C240.968 126.679 241.684 126.371 242.524 126.371C243.524 126.371 244.28 126.767 244.792 127.559ZM242.656 131.675C243.264 131.675 243.772 131.471 244.18 131.063C244.588 130.639 244.792 130.127 244.792 129.527C244.792 128.919 244.588 128.411 244.18 128.003C243.772 127.587 243.264 127.379 242.656 127.379C242.056 127.379 241.552 127.587 241.144 128.003C240.736 128.411 240.532 128.919 240.532 129.527C240.532 130.127 240.736 130.639 241.144 131.063C241.552 131.471 242.056 131.675 242.656 131.675ZM248.462 126.527V127.535C248.806 126.791 249.43 126.419 250.334 126.419V127.511C249.822 127.487 249.382 127.623 249.014 127.919C248.646 128.215 248.462 128.691 248.462 129.347V132.527H247.418V126.527H248.462ZM251.16 132.659C250.944 132.659 250.76 132.583 250.608 132.431C250.456 132.279 250.38 132.095 250.38 131.879C250.38 131.663 250.456 131.479 250.608 131.327C250.76 131.175 250.944 131.099 251.16 131.099C251.384 131.099 251.568 131.175 251.712 131.327C251.864 131.479 251.94 131.663 251.94 131.879C251.94 132.095 251.864 132.279 251.712 132.431C251.568 132.583 251.384 132.659 251.16 132.659Z" fill="#979797"/>
<path d="M236.876 124.127V123.127H236.31L236.018 123.612L236.876 124.127ZM238.136 124.127H239.136V123.127H238.136V124.127ZM238.136 132.527V133.527H239.136V132.527H238.136ZM237.032 132.527H236.032V133.527H237.032V132.527ZM237.032 125.963H238.032V122.358L236.175 125.447L237.032 125.963ZM234.284 130.535V131.535H234.85L235.141 131.05L234.284 130.535ZM234.14 130.535L233.283 131.051L233.575 131.535H234.14V130.535ZM231.392 125.975L232.248 125.458L230.392 122.378V125.975H231.392ZM231.392 132.527V133.527H232.392V132.527H231.392ZM230.276 132.527H229.276V133.527H230.276V132.527ZM230.276 124.127V123.127H229.276V124.127H230.276ZM231.536 124.127L232.392 123.61L232.101 123.127H231.536V124.127ZM234.212 128.567L233.356 129.083L234.214 130.507L235.069 129.081L234.212 128.567ZM236.876 124.127V125.127H238.136V124.127V123.127H236.876V124.127ZM238.136 124.127H237.136V132.527H238.136H239.136V124.127H238.136ZM238.136 132.527V131.527H237.032V132.527V133.527H238.136V132.527ZM237.032 132.527H238.032V125.963H237.032H236.032V132.527H237.032ZM237.032 125.963L236.175 125.447L233.427 130.019L234.284 130.535L235.141 131.05L237.889 126.478L237.032 125.963ZM234.284 130.535V129.535H234.14V130.535V131.535H234.284V130.535ZM234.14 130.535L234.996 130.018L232.248 125.458L231.392 125.975L230.535 126.491L233.283 131.051L234.14 130.535ZM231.392 125.975H230.392V132.527H231.392H232.392V125.975H231.392ZM231.392 132.527V131.527H230.276V132.527V133.527H231.392V132.527ZM230.276 132.527H231.276V124.127H230.276H229.276V132.527H230.276ZM230.276 124.127V125.127H231.536V124.127V123.127H230.276V124.127ZM231.536 124.127L230.68 124.643L233.356 129.083L234.212 128.567L235.068 128.05L232.392 123.61L231.536 124.127ZM234.212 128.567L235.069 129.081L237.733 124.641L236.876 124.127L236.018 123.612L233.354 128.052L234.212 128.567ZM244.792 127.559L243.952 128.102L245.792 130.947V127.559H244.792ZM244.792 126.527V125.527H243.792V126.527H244.792ZM245.836 126.527H246.836V125.527H245.836V126.527ZM245.836 132.527V133.527H246.836V132.527H245.836ZM244.792 132.527H243.792V133.527H244.792V132.527ZM244.792 131.495H245.792V128.106L243.952 130.952L244.792 131.495ZM240.376 131.771L241.097 131.078L241.097 131.078L240.376 131.771ZM244.18 131.063L244.887 131.77L244.894 131.763L244.901 131.756L244.18 131.063ZM244.18 128.003L243.466 128.703L243.473 128.71L244.18 128.003ZM241.144 128.003L241.851 128.71L241.858 128.703L241.144 128.003ZM241.144 131.063L240.424 131.756L240.43 131.763L240.437 131.77L241.144 131.063ZM244.792 127.559H245.792V126.527H244.792H243.792V127.559H244.792ZM244.792 126.527V127.527H245.836V126.527V125.527H244.792V126.527ZM245.836 126.527H244.836V132.527H245.836H246.836V126.527H245.836ZM245.836 132.527V131.527H244.792V132.527V133.527H245.836V132.527ZM244.792 132.527H245.792V131.495H244.792H243.792V132.527H244.792ZM244.792 131.495L243.952 130.952C243.638 131.439 243.209 131.683 242.524 131.683V132.683V133.683C243.839 133.683 244.923 133.135 245.632 132.038L244.792 131.495ZM242.524 132.683V131.683C241.947 131.683 241.492 131.488 241.097 131.078L240.376 131.771L239.655 132.463C240.429 133.269 241.406 133.683 242.524 133.683V132.683ZM240.376 131.771L241.097 131.078C240.69 130.654 240.488 130.157 240.488 129.527H239.488H238.488C238.488 130.656 238.878 131.655 239.655 132.464L240.376 131.771ZM239.488 129.527H240.488C240.488 128.907 240.688 128.413 241.097 127.988L240.376 127.295L239.655 126.602C238.88 127.408 238.488 128.402 238.488 129.527H239.488ZM240.376 127.295L241.097 127.988C241.504 127.564 241.962 127.371 242.524 127.371V126.371V125.371C241.407 125.371 240.432 125.793 239.655 126.602L240.376 127.295ZM242.524 126.371V127.371C243.209 127.371 243.638 127.615 243.952 128.102L244.792 127.559L245.632 127.016C244.923 125.919 243.839 125.371 242.524 125.371V126.371ZM242.656 131.675V132.675C243.514 132.675 244.281 132.376 244.887 131.77L244.18 131.063L243.473 130.356C243.264 130.565 243.015 130.675 242.656 130.675V131.675ZM244.18 131.063L244.901 131.756C245.492 131.142 245.792 130.379 245.792 129.527H244.792H243.792C243.792 129.874 243.684 130.136 243.46 130.369L244.18 131.063ZM244.792 129.527H245.792C245.792 128.669 245.494 127.902 244.887 127.296L244.18 128.003L243.473 128.71C243.683 128.919 243.792 129.168 243.792 129.527H244.792ZM244.18 128.003L244.894 127.302C244.289 126.686 243.52 126.379 242.656 126.379V127.379V128.379C243.009 128.379 243.255 128.488 243.466 128.703L244.18 128.003ZM242.656 127.379V126.379C241.797 126.379 241.033 126.688 240.43 127.302L241.144 128.003L241.858 128.703C242.072 128.485 242.316 128.379 242.656 128.379V127.379ZM241.144 128.003L240.437 127.296C239.831 127.902 239.532 128.669 239.532 129.527H240.532H241.532C241.532 129.168 241.642 128.919 241.851 128.71L241.144 128.003ZM240.532 129.527H239.532C239.532 130.379 239.832 131.142 240.424 131.756L241.144 131.063L241.865 130.369C241.64 130.136 241.532 129.874 241.532 129.527H240.532ZM241.144 131.063L240.437 131.77C241.041 132.373 241.803 132.675 242.656 132.675V131.675V130.675C242.31 130.675 242.064 130.568 241.851 130.356L241.144 131.063ZM248.462 126.527H249.462V125.527H248.462V126.527ZM248.462 127.535H247.462L249.37 127.954L248.462 127.535ZM250.334 126.419H251.334V125.419H250.334V126.419ZM250.334 127.511L250.287 128.51L251.334 128.559V127.511H250.334ZM249.014 127.919L249.641 128.698V128.698L249.014 127.919ZM248.462 132.527V133.527H249.462V132.527H248.462ZM247.418 132.527H246.418V133.527H247.418V132.527ZM247.418 126.527V125.527H246.418V126.527H247.418ZM248.462 126.527H247.462V127.535H248.462H249.462V126.527H248.462ZM248.462 127.535L249.37 127.954C249.468 127.741 249.583 127.626 249.7 127.557C249.824 127.483 250.019 127.419 250.334 127.419V126.419V125.419C249.745 125.419 249.176 125.54 248.676 125.839C248.169 126.141 247.8 126.584 247.554 127.115L248.462 127.535ZM250.334 126.419H249.334V127.511H250.334H251.334V126.419H250.334ZM250.334 127.511L250.381 126.512C249.648 126.477 248.962 126.677 248.387 127.139L249.014 127.919L249.641 128.698C249.802 128.568 249.996 128.496 250.287 128.51L250.334 127.511ZM249.014 127.919L248.387 127.139C247.701 127.691 247.462 128.512 247.462 129.347H248.462H249.462C249.462 128.869 249.591 128.738 249.641 128.698L249.014 127.919ZM248.462 129.347H247.462V132.527H248.462H249.462V129.347H248.462ZM248.462 132.527V131.527H247.418V132.527V133.527H248.462V132.527ZM247.418 132.527H248.418V126.527H247.418H246.418V132.527H247.418ZM247.418 126.527V127.527H248.462V126.527V125.527H247.418V126.527ZM250.608 132.431L251.315 131.724L250.608 132.431ZM251.712 131.327L250.986 132.014L250.995 132.024L251.005 132.034L251.712 131.327ZM251.712 132.431L251.005 131.724L250.995 131.733L250.986 131.743L251.712 132.431ZM251.16 132.659V131.659C251.172 131.659 251.203 131.661 251.242 131.677C251.281 131.694 251.306 131.714 251.315 131.724L250.608 132.431L249.901 133.138C250.241 133.478 250.68 133.659 251.16 133.659V132.659ZM250.608 132.431L251.315 131.724C251.325 131.733 251.345 131.758 251.361 131.797C251.377 131.836 251.38 131.867 251.38 131.879H250.38H249.38C249.38 132.358 249.56 132.797 249.901 133.138L250.608 132.431ZM250.38 131.879H251.38C251.38 131.89 251.377 131.921 251.361 131.96C251.345 131.999 251.325 132.024 251.315 132.034L250.608 131.327L249.901 130.62C249.56 130.96 249.38 131.399 249.38 131.879H250.38ZM250.608 131.327L251.315 132.034C251.306 132.043 251.281 132.064 251.242 132.08C251.203 132.096 251.172 132.099 251.16 132.099V131.099V130.099C250.68 130.099 250.241 130.279 249.901 130.62L250.608 131.327ZM251.16 131.099V132.099C251.157 132.099 251.128 132.098 251.084 132.08C251.039 132.061 251.006 132.035 250.986 132.014L251.712 131.327L252.438 130.639C252.091 130.272 251.637 130.099 251.16 130.099V131.099ZM251.712 131.327L251.005 132.034C250.995 132.024 250.975 131.999 250.959 131.96C250.943 131.921 250.94 131.89 250.94 131.879H251.94H252.94C252.94 131.399 252.76 130.96 252.419 130.62L251.712 131.327ZM251.94 131.879H250.94C250.94 131.867 250.943 131.836 250.959 131.797C250.975 131.758 250.995 131.733 251.005 131.724L251.712 132.431L252.419 133.138C252.76 132.797 252.94 132.358 252.94 131.879H251.94ZM251.712 132.431L250.986 131.743C251.006 131.722 251.039 131.696 251.084 131.677C251.128 131.659 251.157 131.659 251.16 131.659V132.659V133.659C251.637 133.659 252.091 133.485 252.438 133.118L251.712 132.431Z" fill="#979797" mask="url(#path-12-inside-4_64_1874)"/>
<path d="M323.001 112.507V106.507" stroke="#979797"/>
<mask id="path-15-inside-5_64_1874" fill="white">
<path d="M312.969 133.026H311.781L311.097 131.142H307.317L306.633 133.026H305.445L308.577 124.626H309.837L312.969 133.026ZM309.201 125.958L307.701 130.098H310.713L309.201 125.958ZM317.164 126.87C318.004 126.87 318.72 127.178 319.312 127.794C319.904 128.41 320.2 129.154 320.2 130.026C320.2 130.906 319.904 131.654 319.312 132.27C318.728 132.878 318.012 133.182 317.164 133.182C316.172 133.182 315.416 132.786 314.896 131.994V135.426H313.852V127.026H314.896V128.058C315.416 127.266 316.172 126.87 317.164 126.87ZM317.032 132.174C317.632 132.174 318.136 131.97 318.544 131.562C318.952 131.138 319.156 130.626 319.156 130.026C319.156 129.418 318.952 128.91 318.544 128.502C318.136 128.086 317.632 127.878 317.032 127.878C316.424 127.878 315.916 128.086 315.508 128.502C315.1 128.91 314.896 129.418 314.896 130.026C314.896 130.626 315.1 131.138 315.508 131.562C315.916 131.97 316.424 132.174 317.032 132.174ZM322.489 127.026V128.034C322.833 127.29 323.457 126.918 324.361 126.918V128.01C323.849 127.986 323.409 128.122 323.041 128.418C322.673 128.714 322.489 129.19 322.489 129.846V133.026H321.445V127.026H322.489ZM325.187 133.158C324.971 133.158 324.787 133.082 324.635 132.93C324.483 132.778 324.407 132.594 324.407 132.378C324.407 132.162 324.483 131.978 324.635 131.826C324.787 131.674 324.971 131.598 325.187 131.598C325.411 131.598 325.595 131.674 325.739 131.826C325.891 131.978 325.967 132.162 325.967 132.378C325.967 132.594 325.891 132.778 325.739 132.93C325.595 133.082 325.411 133.158 325.187 133.158Z"/>
</mask>
<path d="M312.969 133.026H311.781L311.097 131.142H307.317L306.633 133.026H305.445L308.577 124.626H309.837L312.969 133.026ZM309.201 125.958L307.701 130.098H310.713L309.201 125.958ZM317.164 126.87C318.004 126.87 318.72 127.178 319.312 127.794C319.904 128.41 320.2 129.154 320.2 130.026C320.2 130.906 319.904 131.654 319.312 132.27C318.728 132.878 318.012 133.182 317.164 133.182C316.172 133.182 315.416 132.786 314.896 131.994V135.426H313.852V127.026H314.896V128.058C315.416 127.266 316.172 126.87 317.164 126.87ZM317.032 132.174C317.632 132.174 318.136 131.97 318.544 131.562C318.952 131.138 319.156 130.626 319.156 130.026C319.156 129.418 318.952 128.91 318.544 128.502C318.136 128.086 317.632 127.878 317.032 127.878C316.424 127.878 315.916 128.086 315.508 128.502C315.1 128.91 314.896 129.418 314.896 130.026C314.896 130.626 315.1 131.138 315.508 131.562C315.916 131.97 316.424 132.174 317.032 132.174ZM322.489 127.026V128.034C322.833 127.29 323.457 126.918 324.361 126.918V128.01C323.849 127.986 323.409 128.122 323.041 128.418C322.673 128.714 322.489 129.19 322.489 129.846V133.026H321.445V127.026H322.489ZM325.187 133.158C324.971 133.158 324.787 133.082 324.635 132.93C324.483 132.778 324.407 132.594 324.407 132.378C324.407 132.162 324.483 131.978 324.635 131.826C324.787 131.674 324.971 131.598 325.187 131.598C325.411 131.598 325.595 131.674 325.739 131.826C325.891 131.978 325.967 132.162 325.967 132.378C325.967 132.594 325.891 132.778 325.739 132.93C325.595 133.082 325.411 133.158 325.187 133.158Z" fill="#979797"/>
<path d="M312.969 133.026V134.026H314.409L313.906 132.677L312.969 133.026ZM311.781 133.026L310.841 133.368L311.08 134.026H311.781V133.026ZM311.097 131.142L312.037 130.801L311.797 130.142H311.097V131.142ZM307.317 131.142V130.142H306.616L306.377 130.801L307.317 131.142ZM306.633 133.026V134.026H307.333L307.573 133.368L306.633 133.026ZM305.445 133.026L304.508 132.677L304.005 134.026H305.445V133.026ZM308.577 124.626V123.626H307.882L307.64 124.277L308.577 124.626ZM309.837 124.626L310.774 124.277L310.531 123.626H309.837V124.626ZM309.201 125.958L310.14 125.615L309.197 123.033L308.26 125.618L309.201 125.958ZM307.701 130.098L306.76 129.758L306.275 131.098H307.701V130.098ZM310.713 130.098V131.098H312.142L311.652 129.755L310.713 130.098ZM312.969 133.026V132.026H311.781V133.026V134.026H312.969V133.026ZM311.781 133.026L312.721 132.685L312.037 130.801L311.097 131.142L310.157 131.484L310.841 133.368L311.781 133.026ZM311.097 131.142V130.142H307.317V131.142V132.142H311.097V131.142ZM307.317 131.142L306.377 130.801L305.693 132.685L306.633 133.026L307.573 133.368L308.257 131.484L307.317 131.142ZM306.633 133.026V132.026H305.445V133.026V134.026H306.633V133.026ZM305.445 133.026L306.382 133.376L309.514 124.976L308.577 124.626L307.64 124.277L304.508 132.677L305.445 133.026ZM308.577 124.626V125.626H309.837V124.626V123.626H308.577V124.626ZM309.837 124.626L308.9 124.976L312.032 133.376L312.969 133.026L313.906 132.677L310.774 124.277L309.837 124.626ZM309.201 125.958L308.26 125.618L306.76 129.758L307.701 130.098L308.641 130.439L310.141 126.299L309.201 125.958ZM307.701 130.098V131.098H310.713V130.098V129.098H307.701V130.098ZM310.713 130.098L311.652 129.755L310.14 125.615L309.201 125.958L308.261 126.301L309.773 130.441L310.713 130.098ZM319.312 132.27L318.591 131.577L318.59 131.578L319.312 132.27ZM314.896 131.994L315.731 131.446L313.896 128.649V131.994H314.896ZM314.896 135.426V136.426H315.896V135.426H314.896ZM313.852 135.426H312.852V136.426H313.852V135.426ZM313.852 127.026V126.026H312.852V127.026H313.852ZM314.896 127.026H315.896V126.026H314.896V127.026ZM314.896 128.058H313.896V131.403L315.731 128.607L314.896 128.058ZM318.544 131.562L319.251 132.269L319.257 132.263L319.264 132.256L318.544 131.562ZM318.544 128.502L317.83 129.203L317.836 129.209L318.544 128.502ZM315.508 128.502L316.215 129.21L316.222 129.203L315.508 128.502ZM315.508 131.562L314.787 132.256L314.794 132.263L314.8 132.269L315.508 131.562ZM317.164 126.87V127.87C317.726 127.87 318.183 128.064 318.591 128.487L319.312 127.794L320.033 127.101C319.256 126.293 318.281 125.87 317.164 125.87V126.87ZM319.312 127.794L318.591 128.487C318.999 128.913 319.2 129.407 319.2 130.026H320.2H321.2C321.2 128.902 320.808 127.908 320.033 127.101L319.312 127.794ZM320.2 130.026H319.2C319.2 130.657 318.998 131.154 318.591 131.577L319.312 132.27L320.033 132.963C320.809 132.155 321.2 131.156 321.2 130.026H320.2ZM319.312 132.27L318.59 131.578C318.196 131.988 317.741 132.182 317.164 132.182V133.182V134.182C318.282 134.182 319.259 133.769 320.033 132.963L319.312 132.27ZM317.164 133.182V132.182C316.489 132.182 316.056 131.94 315.731 131.446L314.896 131.994L314.06 132.543C314.775 133.632 315.854 134.182 317.164 134.182V133.182ZM314.896 131.994H313.896V135.426H314.896H315.896V131.994H314.896ZM314.896 135.426V134.426H313.852V135.426V136.426H314.896V135.426ZM313.852 135.426H314.852V127.026H313.852H312.852V135.426H313.852ZM313.852 127.026V128.026H314.896V127.026V126.026H313.852V127.026ZM314.896 127.026H313.896V128.058H314.896H315.896V127.026H314.896ZM314.896 128.058L315.731 128.607C316.056 128.112 316.489 127.87 317.164 127.87V126.87V125.87C315.854 125.87 314.775 126.42 314.06 127.51L314.896 128.058ZM317.032 132.174V133.174C317.885 133.174 318.647 132.873 319.251 132.269L318.544 131.562L317.836 130.855C317.624 131.068 317.378 131.174 317.032 131.174V132.174ZM318.544 131.562L319.264 132.256C319.855 131.641 320.156 130.879 320.156 130.026H319.156H318.156C318.156 130.373 318.048 130.635 317.823 130.869L318.544 131.562ZM319.156 130.026H320.156C320.156 129.169 319.857 128.402 319.251 127.795L318.544 128.502L317.836 129.209C318.046 129.419 318.156 129.668 318.156 130.026H319.156ZM318.544 128.502L319.258 127.802C318.655 127.188 317.891 126.878 317.032 126.878V127.878V128.878C317.372 128.878 317.616 128.985 317.83 129.203L318.544 128.502ZM317.032 127.878V126.878C316.168 126.878 315.399 127.185 314.794 127.802L315.508 128.502L316.222 129.203C316.433 128.987 316.679 128.878 317.032 128.878V127.878ZM315.508 128.502L314.8 127.795C314.194 128.402 313.896 129.169 313.896 130.026H314.896H315.896C315.896 129.668 316.005 129.419 316.215 129.209L315.508 128.502ZM314.896 130.026H313.896C313.896 130.879 314.196 131.641 314.787 132.256L315.508 131.562L316.228 130.869C316.003 130.635 315.896 130.373 315.896 130.026H314.896ZM315.508 131.562L314.8 132.269C315.407 132.876 316.174 133.174 317.032 133.174V132.174V131.174C316.673 131.174 316.424 131.065 316.215 130.855L315.508 131.562ZM322.489 127.026H323.489V126.026H322.489V127.026ZM322.489 128.034H321.489L323.397 128.454L322.489 128.034ZM324.361 126.918H325.361V125.918H324.361V126.918ZM324.361 128.01L324.314 129.009L325.361 129.058V128.01H324.361ZM323.041 128.418L323.668 129.198V129.198L323.041 128.418ZM322.489 133.026V134.026H323.489V133.026H322.489ZM321.445 133.026H320.445V134.026H321.445V133.026ZM321.445 127.026V126.026H320.445V127.026H321.445ZM322.489 127.026H321.489V128.034H322.489H323.489V127.026H322.489ZM322.489 128.034L323.397 128.454C323.496 128.241 323.61 128.126 323.727 128.056C323.851 127.983 324.046 127.918 324.361 127.918V126.918V125.918C323.773 125.918 323.204 126.04 322.703 126.338C322.196 126.641 321.827 127.084 321.582 127.615L322.489 128.034ZM324.361 126.918H323.361V128.01H324.361H325.361V126.918H324.361ZM324.361 128.01L324.408 127.011C323.675 126.977 322.99 127.177 322.415 127.639L323.041 128.418L323.668 129.198C323.829 129.068 324.024 128.996 324.314 129.009L324.361 128.01ZM323.041 128.418L322.415 127.639C321.728 128.191 321.489 129.012 321.489 129.846H322.489H323.489C323.489 129.369 323.618 129.238 323.668 129.198L323.041 128.418ZM322.489 129.846H321.489V133.026H322.489H323.489V129.846H322.489ZM322.489 133.026V132.026H321.445V133.026V134.026H322.489V133.026ZM321.445 133.026H322.445V127.026H321.445H320.445V133.026H321.445ZM321.445 127.026V128.026H322.489V127.026V126.026H321.445V127.026ZM324.635 132.93L325.342 132.223L324.635 132.93ZM325.739 131.826L325.013 132.514L325.023 132.524L325.032 132.533L325.739 131.826ZM325.739 132.93L325.032 132.223L325.023 132.233L325.013 132.243L325.739 132.93ZM325.187 133.158V132.158C325.199 132.158 325.23 132.161 325.269 132.177C325.308 132.193 325.333 132.214 325.342 132.223L324.635 132.93L323.928 133.637C324.269 133.978 324.708 134.158 325.187 134.158V133.158ZM324.635 132.93L325.342 132.223C325.352 132.233 325.372 132.257 325.389 132.297C325.405 132.336 325.407 132.367 325.407 132.378H324.407H323.407C323.407 132.858 323.588 133.297 323.928 133.637L324.635 132.93ZM324.407 132.378H325.407C325.407 132.39 325.405 132.421 325.389 132.46C325.372 132.499 325.352 132.524 325.342 132.533L324.635 131.826L323.928 131.119C323.588 131.46 323.407 131.899 323.407 132.378H324.407ZM324.635 131.826L325.342 132.533C325.333 132.543 325.308 132.563 325.269 132.58C325.23 132.596 325.199 132.598 325.187 132.598V131.598V130.598C324.708 130.598 324.269 130.779 323.928 131.119L324.635 131.826ZM325.187 131.598V132.598C325.185 132.598 325.155 132.598 325.112 132.58C325.067 132.561 325.033 132.535 325.013 132.514L325.739 131.826L326.465 131.139C326.118 130.772 325.665 130.598 325.187 130.598V131.598ZM325.739 131.826L325.032 132.533C325.023 132.524 325.002 132.499 324.986 132.46C324.97 132.421 324.967 132.39 324.967 132.378H325.967H326.967C326.967 131.899 326.787 131.46 326.446 131.119L325.739 131.826ZM325.967 132.378H324.967C324.967 132.367 324.97 132.336 324.986 132.297C325.002 132.257 325.023 132.233 325.032 132.223L325.739 132.93L326.446 133.637C326.787 133.297 326.967 132.858 326.967 132.378H325.967ZM325.739 132.93L325.013 132.243C325.033 132.222 325.067 132.196 325.112 132.177C325.155 132.159 325.185 132.158 325.187 132.158V133.158V134.158C325.665 134.158 326.118 133.984 326.465 133.618L325.739 132.93Z" fill="#979797" mask="url(#path-15-inside-5_64_1874)"/>
<path d="M2 53.7675C2 53.7675 44 44.2094 81.75 54.6047C119.5 65.0001 154.5 61.6046 161.5 61.3024C168.5 61.0002 209.819 48.7663 241.25 50.0001C273.153 51.2524 291.652 55.4277 321 68.0001" stroke="#00002F"/>
<path d="M4 59C6.20914 59 8 57.2091 8 55C8 52.7909 6.20914 51 4 51C1.79086 51 0 52.7909 0 55C0 57.2091 1.79086 59 4 59Z" fill="#00002F"/>
<path d="M84 60C86.2091 60 88 58.2091 88 56C88 53.7909 86.2091 52 84 52C81.7909 52 80 53.7909 80 56C80 58.2091 81.7909 60 84 60Z" fill="#00002F"/>
<path d="M164 65C166.209 65 168 63.2091 168 61C168 58.7909 166.209 57 164 57C161.791 57 160 58.7909 160 61C160 63.2091 161.791 65 164 65Z" fill="#00002F"/>
<path d="M244 55C246.209 55 248 53.2091 248 51C248 48.7909 246.209 47 244 47C241.791 47 240 48.7909 240 51C240 53.2091 241.791 55 244 55Z" fill="#00002F"/>
<path d="M324 73C326.209 73 328 71.2091 328 69C328 66.7909 326.209 65 324 65C321.791 65 320 66.7909 320 69C320 71.2091 321.791 73 324 73Z" fill="#00002F"/>
</svg>
