<svg width="32" height="32" viewBox="0 0 32 32" fill="none" xmlns="http://www.w3.org/2000/svg">
<path d="M28.427 12.7334L25.907 11.8934L27.0937 9.52009C27.214 9.27167 27.2542 8.99204 27.2088 8.71978C27.1634 8.44753 27.0347 8.19606 26.8403 8.00009L24.0003 5.16009C23.8033 4.96287 23.5494 4.83236 23.2744 4.78692C22.9993 4.74148 22.717 4.78339 22.467 4.90675L20.0937 6.09342L19.2537 3.57342C19.1649 3.31074 18.9966 3.08225 18.7719 2.91975C18.5473 2.75725 18.2776 2.66881 18.0003 2.66675H14.0003C13.7208 2.66603 13.4481 2.75318 13.2208 2.91588C12.9935 3.07857 12.8231 3.30859 12.7337 3.57342L11.8937 6.09342L9.52033 4.90675C9.27191 4.78646 8.99228 4.74622 8.72003 4.7916C8.44777 4.83698 8.19631 4.96573 8.00033 5.16009L5.16033 8.00009C4.96311 8.19711 4.83261 8.45099 4.78716 8.72603C4.74172 9.00107 4.78363 9.28343 4.907 9.53342L6.09366 11.9068L3.57366 12.7468C3.31099 12.8355 3.0825 13.0039 2.91999 13.2285C2.75749 13.4531 2.66906 13.7228 2.667 14.0001V18.0001C2.66628 18.2796 2.75342 18.5523 2.91612 18.7796C3.07882 19.0069 3.30884 19.1773 3.57366 19.2668L6.09366 20.1068L4.907 22.4801C4.7867 22.7285 4.74647 23.0081 4.79184 23.2804C4.83722 23.5526 4.96597 23.8041 5.16033 24.0001L8.00033 26.8401C8.19735 27.0373 8.45123 27.1678 8.72627 27.2133C9.00131 27.2587 9.28368 27.2168 9.53366 27.0934L11.907 25.9068L12.747 28.4268C12.8364 28.6916 13.0069 28.9216 13.2342 29.0843C13.4615 29.247 13.7341 29.3341 14.0137 29.3334H18.0137C18.2932 29.3341 18.5659 29.247 18.7932 29.0843C19.0205 28.9216 19.1909 28.6916 19.2803 28.4268L20.1203 25.9068L22.4937 27.0934C22.7405 27.2107 23.0174 27.2493 23.2869 27.204C23.5564 27.1586 23.8054 27.0316 24.0003 26.8401L26.8403 24.0001C27.0375 23.8031 27.1681 23.5492 27.2135 23.2741C27.2589 22.9991 27.217 22.7167 27.0937 22.4668L25.907 20.0934L28.427 19.2534C28.6897 19.1647 28.9182 18.9963 29.0807 18.7717C29.2432 18.547 29.3316 18.2773 29.3337 18.0001V14.0001C29.3344 13.7206 29.2472 13.4479 29.0845 13.2206C28.9218 12.9933 28.6918 12.8229 28.427 12.7334ZM26.667 17.0401L25.067 17.5734C24.6991 17.6928 24.3615 17.8907 24.0777 18.1536C23.794 18.4164 23.5708 18.7378 23.4236 19.0955C23.2765 19.4532 23.2089 19.8387 23.2256 20.2251C23.2423 20.6116 23.3429 20.9897 23.5203 21.3334L24.2803 22.8534L22.8137 24.3201L21.3337 23.5201C20.9917 23.3497 20.6172 23.2548 20.2354 23.2418C19.8536 23.2288 19.4735 23.298 19.1208 23.4446C18.768 23.5913 18.4509 23.812 18.1909 24.0919C17.9309 24.3717 17.734 24.7042 17.6137 25.0668L17.0803 26.6668H14.9603L14.427 25.0668C14.3077 24.6988 14.1097 24.3613 13.8469 24.0775C13.584 23.7937 13.2626 23.5705 12.9049 23.4234C12.5472 23.2762 12.1617 23.2087 11.7753 23.2254C11.3889 23.2421 11.0107 23.3426 10.667 23.5201L9.147 24.2801L7.68033 22.8134L8.48033 21.3334C8.65779 20.9897 8.75836 20.6116 8.77506 20.2251C8.79176 19.8387 8.72419 19.4532 8.57705 19.0955C8.4299 18.7378 8.2067 18.4164 7.92292 18.1536C7.63915 17.8907 7.30159 17.6928 6.93366 17.5734L5.33366 17.0401V14.9601L6.93366 14.4268C7.30159 14.3074 7.63915 14.1095 7.92292 13.8466C8.2067 13.5838 8.4299 13.2624 8.57705 12.9046C8.72419 12.5469 8.79176 12.1615 8.77506 11.7751C8.75836 11.3886 8.65779 11.0104 8.48033 10.6668L7.72033 9.18675L9.187 7.72009L10.667 8.48009C11.0107 8.65754 11.3889 8.75811 11.7753 8.77481C12.1617 8.79151 12.5472 8.72395 12.9049 8.5768C13.2626 8.42966 13.584 8.20646 13.8469 7.92268C14.1097 7.6389 14.3077 7.30134 14.427 6.93342L14.9603 5.33342H17.0403L17.5737 6.93342C17.693 7.30134 17.891 7.6389 18.1538 7.92268C18.4166 8.20646 18.7381 8.42966 19.0958 8.5768C19.4535 8.72395 19.8389 8.79151 20.2254 8.77481C20.6118 8.75811 20.99 8.65754 21.3337 8.48009L22.8537 7.72009L24.3203 9.18675L23.5203 10.6668C23.35 11.0087 23.2551 11.3832 23.2421 11.765C23.229 12.1468 23.2982 12.5269 23.4449 12.8797C23.5915 13.2324 23.8122 13.5495 24.0921 13.8095C24.372 14.0695 24.7044 14.2664 25.067 14.3868L26.667 14.9201V17.0401ZM16.0003 10.6668C14.9455 10.6668 13.9144 10.9795 13.0373 11.5656C12.1602 12.1516 11.4766 12.9846 11.073 13.9591C10.6693 14.9336 10.5637 16.006 10.7695 17.0406C10.9753 18.0751 11.4832 19.0254 12.2291 19.7713C12.975 20.5172 13.9253 21.0252 14.9598 21.2309C15.9944 21.4367 17.0668 21.3311 18.0413 20.9274C19.0158 20.5238 19.8488 19.8402 20.4348 18.9631C21.0209 18.0861 21.3337 17.0549 21.3337 16.0001C21.3337 14.5856 20.7718 13.229 19.7716 12.2288C18.7714 11.2287 17.4148 10.6668 16.0003 10.6668ZM16.0003 18.6667C15.4729 18.6667 14.9573 18.5104 14.5188 18.2173C14.0803 17.9243 13.7385 17.5078 13.5366 17.0206C13.3348 16.5333 13.282 15.9971 13.3849 15.4798C13.4878 14.9626 13.7418 14.4874 14.1147 14.1145C14.4877 13.7415 14.9628 13.4876 15.4801 13.3847C15.9974 13.2818 16.5335 13.3346 17.0208 13.5364C17.5081 13.7382 17.9246 14.08 18.2176 14.5186C18.5106 14.9571 18.667 15.4727 18.667 16.0001C18.667 16.7073 18.386 17.3856 17.8859 17.8857C17.3858 18.3858 16.7076 18.6667 16.0003 18.6667Z" fill="#1F1E1E"/>
</svg>
